# xmcd
#
# Track frame offsets:
#	150
#	13574
#	31230
#	45313
#	58590
#	68627
#	81856
#	93659
#	106515
#	118662
#	132261
#	149356
#	165014
#	177960
#	195734
#	206817
#
# Disc length: 3026 seconds
#
# Revision: 1
# Processed by: cddbd v1.4PL0 Copyright (c) Steve Scherf et al.
# Submitted via: audiograbber 1.80.04
#
DISCID=cd0bd010
DTITLE=Clive Bruce - Golden Country Hits
DYEAR=1998
DGENRE=Country
TTITLE0=Chrystal Chandeliers
TTITLE1=Baby Blue
TTITLE2=There Goes My Everything
TTITLE3=Ramblin' Rose
TTITLE4=Kiss An Angel Good-Morning
TTITLE5=The Green Grass Of Home
TTITLE6=Your Cold, Cold Heart
TTITLE7=Heartaches By The Number
TTITLE8=The Streets Of Baltimore
TTITLE9=Devil Woman
TTITLE10=Blue Spanish Eyes
TTITLE11=(Please) Release Me
TTITLE12=Heaven Is My Woman's Love
TTITLE13=Rock 'N Roll Lullabye
TTITLE14=18 Yellow Roses
TTITLE15=I Can't Stop Loving You
EXTD=
EXTT0=
EXTT1=
EXTT2=
EXTT3=
EXTT4=
EXTT5=
EXTT6=
EXTT7=
EXTT8=
EXTT9=
EXTT10=
EXTT11=
EXTT12=
EXTT13=
EXTT14=
EXTT15=
PLAYORDER=
